<svg width="8" height="8" viewBox="0 0 8 8" fill="none" xmlns="http://www.w3.org/2000/svg">
<path d="M5.07579 3.70284L4.46833 4.34323L7.34926 7.38033L6.76145 8L3.88053 4.9629L0.999606 8L0.411799 7.38033L4.48798 3.08317C4.33107 2.75262 4.30821 2.36698 4.41942 1.92625C4.53063 1.48551 4.74942 1.09296 5.07579 0.748604C5.48076 0.32168 5.93144 0.0772192 6.42783 0.0152226C6.92422 -0.046774 7.32264 0.0805982 7.62309 0.397339C7.92355 0.71408 8.04437 1.13763 7.98556 1.66797C7.92675 2.19832 7.69486 2.67696 7.28989 3.10389C6.96324 3.44825 6.59088 3.67552 6.17281 3.7857C5.75474 3.89588 5.38893 3.86827 5.07537 3.70284H5.07579ZM2.25382 4.50851L0.489978 2.64905C0.163326 2.30469 0 1.89143 0 1.40926C0 0.927101 0.163326 0.51384 0.489978 0.169479L3.42943 3.24757L2.25382 4.50851Z" fill="#F03C03"/>
</svg>
